# xmcd
#
# Track frame offsets: 
#        150
#        36722
#        69966
#        99418
#        135047
#        165242
#        186518
#        225856
#        246405
#        275841
#        305795
#        334837
#
# Disc length: 4780 seconds
#
# Revision: 0
# Processed by: cddbd v1.5.2PL0 Copyright (c) Steve Scherf et al.
# Submitted via: ExactAudioCopy v0.99pb5
#
DISCID=a612aa0c
DTITLE=John Mayall - Running With The Blues - The Second Decade 1972 T
DTITLE=o 1982
DYEAR=2008
DGENRE=Blues
TTITLE0=No Smoking
TTITLE1=No Holds Barred
TTITLE2=Sad To Be Alone
TTITLE3=Filthy McNasty
TTITLE4=Make My Bed Tonight
TTITLE5=Gone From The Canyon
TTITLE6=John Lee Boogie
TTITLE7=Emergency Boogie
TTITLE8=Howlin' Moon
TTITLE9=Room To Move
TTITLE10=Sitting Here Alone
TTITLE11=The Stumble
EXTD=
EXTT0=
EXTT1=
EXTT2=
EXTT3=
EXTT4=
EXTT5=
EXTT6=
EXTT7=
EXTT8=
EXTT9=
EXTT10=
EXTT11=
PLAYORDER=
